<?xml version="1.0" encoding="UTF-8" standalone="no"?>
<!-- Created with Inkscape (http://www.inkscape.org/) -->

<svg
   xmlns:dc="http://purl.org/dc/elements/1.1/"
   xmlns:cc="http://creativecommons.org/ns#"
   xmlns:rdf="http://www.w3.org/1999/02/22-rdf-syntax-ns#"
   xmlns:svg="http://www.w3.org/2000/svg"
   xmlns="http://www.w3.org/2000/svg"
   xmlns:sodipodi="http://sodipodi.sourceforge.net/DTD/sodipodi-0.dtd"
   xmlns:inkscape="http://www.inkscape.org/namespaces/inkscape"
   width="512"
   height="256"
   viewBox="0 0 511.99999 256"
   id="svg2"
   version="1.1"
   inkscape:version="0.91 r13725"
   sodipodi:docname="logo.svg"
   inkscape:export-filename="/home/petervaro/currents/argon/img/logo.png"
   inkscape:export-xdpi="91.410004"
   inkscape:export-ydpi="91.410004">
  <defs
     id="defs4" />
  <sodipodi:namedview
     id="base"
     pagecolor="#ffffff"
     bordercolor="#666666"
     borderopacity="1.0"
     inkscape:pageopacity="0.0"
     inkscape:pageshadow="2"
     inkscape:zoom="2"
     inkscape:cx="303.96269"
     inkscape:cy="96.470582"
     inkscape:document-units="px"
     inkscape:current-layer="layer1"
     showgrid="false"
     units="px"
     inkscape:showpageshadow="false"
     inkscape:window-width="2560"
     inkscape:window-height="1422"
     inkscape:window-x="0"
     inkscape:window-y="0"
     inkscape:window-maximized="1"
     showborder="true"
     showguides="true"
     inkscape:guide-bbox="true" />
  <metadata
     id="metadata7">
    <rdf:RDF>
      <cc:Work
         rdf:about="">
        <dc:format>image/svg+xml</dc:format>
        <dc:type
           rdf:resource="http://purl.org/dc/dcmitype/StillImage" />
        <dc:title></dc:title>
      </cc:Work>
    </rdf:RDF>
  </metadata>
  <g
     inkscape:label="Layer 1"
     inkscape:groupmode="layer"
     id="layer1"
     transform="translate(0,-796.36216)">
    <path
       inkscape:connector-curvature="0"
       id="path4156-8"
       style="font-style:normal;font-variant:normal;font-weight:normal;font-stretch:normal;font-size:medium;line-height:125%;font-family:'Kelson Sans';-inkscape-font-specification:'Kelson Sans';letter-spacing:0px;word-spacing:0px;fill:#2f6d6b;fill-opacity:1;stroke:none;stroke-width:1px;stroke-linecap:butt;stroke-linejoin:miter;stroke-opacity:1"
       d="m 137.054,991.36161 -37.7683,-142.3719 -17.9585,0 -37.9535,142.3719 18.3287,0 7.2205,-26.4749 42.7671,0 7.2205,26.4749 18.1435,0 z m -37.398,-73.5002 7.4055,30.3627 -33.6953,0 7.2204,-29.8073 9.6273,-46.4699 9.4421,45.9145 z" />
    <path
       inkscape:connector-curvature="0"
       id="path4158-9"
       style="font-style:normal;font-variant:normal;font-weight:normal;font-stretch:normal;font-size:medium;line-height:125%;font-family:'Kelson Sans';-inkscape-font-specification:'Kelson Sans';letter-spacing:0px;word-spacing:0px;fill:#2f6d6b;fill-opacity:1;stroke:none;stroke-width:1px;stroke-linecap:butt;stroke-linejoin:miter;stroke-opacity:1"
       d="m 197.6755,883.05521 c -13.3299,-2.7771 -25.7344,1.8514 -31.1034,9.9975 l -0.7405,-9.9975 -16.1072,0 0,108.4915 17.5882,0 0,-69.6122 c 0,-16.6626 13.3302,-23.6979 30.3629,-20.9208 l 0,-17.9585 z" />
    <path
       inkscape:connector-curvature="0"
       id="path4162-9"
       style="font-style:normal;font-variant:normal;font-weight:300;font-stretch:normal;font-size:180px;line-height:125%;font-family:'Kelson Sans';-inkscape-font-specification:'Kelson Sans Light';letter-spacing:0px;word-spacing:0px;fill:#2f6d6b;fill-opacity:1;stroke:none;stroke-width:1px;stroke-linecap:butt;stroke-linejoin:miter;stroke-opacity:1"
       d="m 373.5513,984.14111 c -21.291,0 -24.9938,-9.4421 -24.9938,-32.7696 l 0,-28.6965 c 0,-22.7721 4.9988,-31.8439 24.9938,-31.8439 21.291,0 24.9938,8.8866 24.9938,32.2142 l 0,28.6965 c 0,22.7721 -4.9988,32.3993 -24.9938,32.3993 z m 0,8.5164 c 23.3275,0 34.2508,-10.5529 34.2508,-40.5455 l 0,-29.0667 c 0,-31.844 -10.9233,-40.9158 -34.2508,-40.9158 -23.3276,0 -34.2508,9.8124 -34.2508,40.3604 l 0,29.6221 c 0,31.4737 10.9232,40.5455 34.2508,40.5455 z" />
    <path
       inkscape:connector-curvature="0"
       id="path4164-8"
       style="font-style:normal;font-variant:normal;font-weight:300;font-stretch:normal;font-size:180px;line-height:125%;font-family:'Kelson Sans';-inkscape-font-specification:'Kelson Sans Light';letter-spacing:0px;word-spacing:0px;fill:#2f6d6b;fill-opacity:1;stroke:none;stroke-width:1px;stroke-linecap:butt;stroke-linejoin:miter;stroke-opacity:1"
       d="m 429.758,883.79581 0,107.5658 9.257,0 0,-75.5367 c 0,-12.4044 6.4799,-25.9195 25.9195,-25.9195 19.43956,0 24.80855,7.2204 24.80855,31.2885 l 0,70.1677 9.25695,0 0,-70.1677 c 0,-27.956 -7.77583,-39.4347 -33.1398,-39.4347 -13.33,0 -22.2167,5.5542 -27.2155,13.5152 l -0.7405,-11.4786 -8.1462,0 z" />
    <path
       style="color:#000000;font-style:normal;font-variant:normal;font-weight:normal;font-stretch:normal;font-size:medium;line-height:normal;font-family:sans-serif;text-indent:0;text-align:start;text-decoration:none;text-decoration-line:none;text-decoration-style:solid;text-decoration-color:#000000;letter-spacing:normal;word-spacing:normal;text-transform:none;direction:ltr;block-progression:tb;writing-mode:lr-tb;baseline-shift:baseline;text-anchor:start;white-space:normal;clip-rule:nonzero;display:inline;overflow:visible;visibility:visible;opacity:1;isolation:auto;mix-blend-mode:normal;color-interpolation:sRGB;color-interpolation-filters:linearRGB;solid-color:#000000;solid-opacity:1;fill:#2f6d6b;fill-opacity:1;fill-rule:evenodd;stroke:none;stroke-width:3.48880196;stroke-linecap:butt;stroke-linejoin:miter;stroke-miterlimit:4;stroke-dasharray:none;stroke-dashoffset:0;stroke-opacity:1;color-rendering:auto;image-rendering:auto;shape-rendering:auto;text-rendering:auto;enable-background:accumulate"
       d="m 13,815.70651 0,1.7959 0,213.25139 215.0493,0 0,-215.04729 -215.0493,0 z m 9.285,9.2871 196.4772,0 0,196.47499 -196.4772,0 0,-196.47499 z"
       id="path4271"
       inkscape:connector-curvature="0" />
    <path
       inkscape:connector-curvature="0"
       id="path4160-2"
       style="font-style:normal;font-variant:normal;font-weight:300;font-stretch:normal;font-size:180px;line-height:125%;font-family:'Kelson Sans';-inkscape-font-specification:'Kelson Sans Light';letter-spacing:0px;word-spacing:0px;fill:#2f6d6b;fill-opacity:1;stroke:none;stroke-width:1px;stroke-linecap:butt;stroke-linejoin:miter;stroke-opacity:1"
       d="m 252.9478,1005.9875 c 0.9256,18.8842 10.9232,27.0303 31.2883,27.0303 23.3277,0 34.9913,-10.5529 34.9913,-40.17509 l 0,-109.0469 -8.3311,0 0,12.034 c -4.8138,-9.4421 -13.3301,-13.5151 -26.1047,-13.5151 -23.6978,0.5554 -34.806,9.4421 -34.806,38.6941 l 0,33.6952 c 0,27.4006 11.1082,37.213 33.1398,37.213 12.2192,0 21.6612,-2.9622 27.0303,-12.9598 l 0,13.8855 c 0,22.21659 -5.3691,31.65869 -25.9196,31.65869 -17.5881,0 -22.0314,-7.0353 -22.5868,-18.5139 l -8.7015,0 z m 56.8375,-50.91319 c 0,17.9585 -7.2203,27.7709 -25.7342,27.7709 -16.8477,0 -24.4383,-5.7394 -24.8086,-27.9561 l 0,-33.6952 c 0,-22.7721 6.1096,-29.8074 25.5491,-30.1777 19.4396,0 24.9937,12.2192 24.9937,33.1399 l 0,30.9182 z" />
  </g>
</svg>
